<svg width="90" height="90" viewBox="0 0 90 90" fill="none" xmlns="http://www.w3.org/2000/svg">
<rect width="90" height="90" fill="white"/>
<path d="M0.758523 49V40.2727H4.2017C4.8608 40.2727 5.4233 40.3906 5.8892 40.6264C6.35795 40.8594 6.71449 41.1903 6.95881 41.6193C7.20597 42.0455 7.32955 42.5469 7.32955 43.1236C7.32955 43.7031 7.20455 44.2017 6.95455 44.6193C6.70455 45.0341 6.34233 45.3523 5.8679 45.5739C5.39631 45.7955 4.82528 45.9062 4.15483 45.9062H1.84943V44.4233H3.85653C4.20881 44.4233 4.50142 44.375 4.73438 44.2784C4.96733 44.1818 5.14063 44.0369 5.25426 43.8438C5.37074 43.6506 5.42898 43.4105 5.42898 43.1236C5.42898 42.8338 5.37074 42.5895 5.25426 42.3906C5.14063 42.1918 4.96591 42.0412 4.73011 41.9389C4.49716 41.8338 4.20313 41.7812 3.84801 41.7812H2.60369V49H0.758523ZM5.47159 45.0284L7.64062 49H5.60369L3.48153 45.0284H5.47159ZM8.63352 49V40.2727H14.5142V41.794H10.4787V43.8736H14.2116V45.3949H10.4787V47.4787H14.5312V49H8.63352ZM15.9812 40.2727H18.2567L20.6602 46.1364H20.7624L23.1658 40.2727H25.4414V49H23.6516V43.3196H23.5792L21.3207 48.9574H20.1019L17.8434 43.2983H17.771V49H15.9812V40.2727ZM26.9616 40.2727H29.2372L31.6406 46.1364H31.7429L34.1463 40.2727H36.4219V49H34.6321V43.3196H34.5597L32.3011 48.9574H31.0824L28.8239 43.2983H28.7514V49H26.9616V40.2727ZM40.9336 49H38.2404V40.2727H41.0529C41.8995 40.2727 42.6239 40.4474 43.2262 40.7969C43.8285 41.1435 44.2901 41.642 44.6112 42.2926C44.9322 42.9403 45.0927 43.7159 45.0927 44.6193C45.0927 45.5284 44.9308 46.3111 44.6069 46.9673C44.283 47.6207 43.8114 48.1236 43.1921 48.4759C42.5728 48.8253 41.82 49 40.9336 49ZM39.2972 48.0625H40.8654C41.587 48.0625 42.185 47.9233 42.6594 47.6449C43.1339 47.3665 43.4876 46.9702 43.7205 46.456C43.9535 45.9418 44.07 45.3295 44.07 44.6193C44.07 43.9148 43.9549 43.3082 43.7248 42.7997C43.4947 42.2884 43.1509 41.8963 42.6935 41.6236C42.2362 41.348 41.6665 41.2102 40.9847 41.2102H39.2972V48.0625ZM46.8654 49V40.2727H52.1325V41.2102H47.9222V44.1591H51.8597V45.0966H47.9222V48.0625H52.2006V49H46.8654ZM58.81 42.4545C58.7589 42.0227 58.5515 41.6875 58.1879 41.4489C57.8242 41.2102 57.3782 41.0909 56.8498 41.0909C56.4634 41.0909 56.1254 41.1534 55.8356 41.2784C55.5487 41.4034 55.3242 41.5753 55.1623 41.794C55.0032 42.0128 54.9237 42.2614 54.9237 42.5398C54.9237 42.7727 54.979 42.973 55.0898 43.1406C55.2035 43.3054 55.3484 43.4432 55.5245 43.554C55.7006 43.6619 55.8853 43.7514 56.0785 43.8224C56.2717 43.8906 56.4492 43.946 56.6112 43.9886L57.4975 44.2273C57.7248 44.2869 57.9776 44.3693 58.256 44.4744C58.5373 44.5795 58.8058 44.723 59.0614 44.9048C59.32 45.0838 59.533 45.3139 59.7006 45.5952C59.8683 45.8764 59.9521 46.2216 59.9521 46.6307C59.9521 47.1023 59.8285 47.5284 59.5813 47.9091C59.337 48.2898 58.979 48.5923 58.5075 48.8168C58.0387 49.0412 57.4691 49.1534 56.7987 49.1534C56.1737 49.1534 55.6325 49.0526 55.1751 48.8509C54.7205 48.6491 54.3626 48.3679 54.1012 48.0071C53.8427 47.6463 53.6964 47.2273 53.6623 46.75H54.7532C54.7816 47.0795 54.8924 47.3523 55.0856 47.5682C55.2816 47.7812 55.5288 47.9403 55.8271 48.0455C56.1282 48.1477 56.4521 48.1989 56.7987 48.1989C57.2021 48.1989 57.5643 48.1335 57.8853 48.0028C58.2063 47.8693 58.4606 47.6847 58.6481 47.4489C58.8356 47.2102 58.9293 46.9318 58.9293 46.6136C58.9293 46.3239 58.8484 46.0881 58.6864 45.9062C58.5245 45.7244 58.3114 45.5767 58.0472 45.4631C57.783 45.3494 57.4975 45.25 57.1907 45.1648L56.1168 44.858C55.435 44.6619 54.8952 44.3821 54.4975 44.0185C54.0998 43.6548 53.9009 43.179 53.9009 42.5909C53.9009 42.1023 54.033 41.6761 54.2972 41.3125C54.5643 40.946 54.9222 40.6619 55.3711 40.4602C55.8228 40.2557 56.3271 40.1534 56.8839 40.1534C57.4464 40.1534 57.9464 40.2543 58.3839 40.456C58.8214 40.6548 59.168 40.9276 59.4237 41.2741C59.6822 41.6207 59.8185 42.0142 59.8327 42.4545H58.81ZM62.7464 40.2727V49H61.6896V40.2727H62.7464ZM70.8313 43C70.7376 42.7131 70.614 42.456 70.4606 42.2287C70.31 41.9986 70.1296 41.8026 69.9194 41.6406C69.712 41.4787 69.4762 41.3551 69.212 41.2699C68.9478 41.1847 68.658 41.142 68.3427 41.142C67.8256 41.142 67.3555 41.2756 66.9322 41.5426C66.5089 41.8097 66.1722 42.2031 65.9222 42.723C65.6722 43.2429 65.5472 43.8807 65.5472 44.6364C65.5472 45.392 65.6737 46.0298 65.9265 46.5497C66.1793 47.0696 66.5217 47.4631 66.9535 47.7301C67.3853 47.9972 67.8711 48.1307 68.4109 48.1307C68.9109 48.1307 69.3512 48.0241 69.7319 47.8111C70.1154 47.5952 70.4137 47.2912 70.6268 46.8991C70.8427 46.5043 70.9506 46.0398 70.9506 45.5057L71.2745 45.5739H68.6495V44.6364H71.9734V45.5739C71.9734 46.2926 71.82 46.9176 71.5131 47.4489C71.2092 47.9801 70.7887 48.392 70.2518 48.6847C69.7177 48.9744 69.104 49.1193 68.4109 49.1193C67.6381 49.1193 66.9592 48.9375 66.3739 48.5739C65.7915 48.2102 65.337 47.6932 65.0103 47.0227C64.6864 46.3523 64.5245 45.5568 64.5245 44.6364C64.5245 43.946 64.6168 43.3253 64.8015 42.7741C64.989 42.2202 65.2532 41.7486 65.5941 41.3594C65.935 40.9702 66.3384 40.6719 66.8043 40.4645C67.2702 40.2571 67.783 40.1534 68.3427 40.1534C68.8029 40.1534 69.2319 40.223 69.6296 40.3622C70.0302 40.4986 70.3867 40.6932 70.6992 40.946C71.0146 41.196 71.2773 41.4957 71.4876 41.8452C71.6978 42.1918 71.8427 42.5767 71.9222 43H70.8313ZM80.7038 40.2727V49H79.6811L74.9254 42.1477H74.8402V49H73.7834V40.2727H74.8061L79.5788 47.142H79.6641V40.2727H80.7038ZM87.5913 42.4545C87.5401 42.0227 87.3327 41.6875 86.9691 41.4489C86.6055 41.2102 86.1594 41.0909 85.631 41.0909C85.2447 41.0909 84.9066 41.1534 84.6168 41.2784C84.3299 41.4034 84.1055 41.5753 83.9435 41.794C83.7844 42.0128 83.7049 42.2614 83.7049 42.5398C83.7049 42.7727 83.7603 42.973 83.8711 43.1406C83.9847 43.3054 84.1296 43.4432 84.3058 43.554C84.4819 43.6619 84.6665 43.7514 84.8597 43.8224C85.0529 43.8906 85.2305 43.946 85.3924 43.9886L86.2788 44.2273C86.506 44.2869 86.7589 44.3693 87.0373 44.4744C87.3185 44.5795 87.587 44.723 87.8427 44.9048C88.1012 45.0838 88.3143 45.3139 88.4819 45.5952C88.6495 45.8764 88.7333 46.2216 88.7333 46.6307C88.7333 47.1023 88.6097 47.5284 88.3626 47.9091C88.1183 48.2898 87.7603 48.5923 87.2887 48.8168C86.82 49.0412 86.2504 49.1534 85.5799 49.1534C84.9549 49.1534 84.4137 49.0526 83.9563 48.8509C83.5018 48.6491 83.1438 48.3679 82.8825 48.0071C82.6239 47.6463 82.4776 47.2273 82.4435 46.75H83.5344C83.5629 47.0795 83.6737 47.3523 83.8668 47.5682C84.0629 47.7812 84.31 47.9403 84.6083 48.0455C84.9094 48.1477 85.2333 48.1989 85.5799 48.1989C85.9833 48.1989 86.3455 48.1335 86.6665 48.0028C86.9876 47.8693 87.2418 47.6847 87.4293 47.4489C87.6168 47.2102 87.7106 46.9318 87.7106 46.6136C87.7106 46.3239 87.6296 46.0881 87.4677 45.9062C87.3058 45.7244 87.0927 45.5767 86.8285 45.4631C86.5643 45.3494 86.2788 45.25 85.9719 45.1648L84.8981 44.858C84.2163 44.6619 83.6765 44.3821 83.2788 44.0185C82.881 43.6548 82.6822 43.179 82.6822 42.5909C82.6822 42.1023 82.8143 41.6761 83.0785 41.3125C83.3455 40.946 83.7035 40.6619 84.1523 40.4602C84.604 40.2557 85.1083 40.1534 85.6651 40.1534C86.2276 40.1534 86.7276 40.2543 87.1651 40.456C87.6026 40.6548 87.9492 40.9276 88.2049 41.2741C88.4634 41.6207 88.5998 42.0142 88.614 42.4545H87.5913Z" fill="black"/>
</svg>
